<svg xmlns="http://www.w3.org/2000/svg" xmlns:xlink="http://www.w3.org/1999/xlink" width="145" height="40" viewBox="0 0 145 40">
    <defs>
        <path id="cjh40dwt4a" d="M0 40L144.444 40 144.444 0 0 0z"/>
    </defs>
    <g fill="none" fill-rule="evenodd">
        <g>
            <g transform="translate(-42.000000, -27.000000) translate(42.000000, 27.000000)">
                <mask id="6uiuc1cvab" fill="#fff">
                    <use xlink:href="#cjh40dwt4a"/>
                </mask>
                <path fill="#000" d="M20 0c11.046 0 20 8.954 20 20 0 11.047-8.954 20-20 20S0 31.048 0 20C0 8.954 8.954 0 20 0zm-5.265 4.356h-2.64v28.326c0 1.46 1.188 2.648 2.648 2.648h5.1v-2.64l-5.108-.008V4.356zm7.292 0c-.28 0-.577.015-.905.045l-.416.039V20.9h-1.728v2.64h1.728v11.79h2.64V23.49c2.211-.304 4.247-1.372 5.77-3.034 1.628-1.776 2.525-4.08 2.525-6.486 0-5.3-4.313-9.614-9.614-9.614zm1.32 2.77C26.604 7.749 29 10.606 29 13.97c0 3.365-2.397 6.221-5.654 6.845V7.126zM70.894 13.943c3.54 0 6.525 2.575 6.525 5.93 0 3.25-2.934 5.87-6.525 5.87s-6.525-2.62-6.525-5.87c0-3.355 2.984-5.93 6.525-5.93zm29.367 0c3.541 0 6.525 2.575 6.525 5.93 0 3.25-2.933 5.87-6.525 5.87-3.591 0-6.524-2.62-6.524-5.87 0-3.355 2.984-5.93 6.524-5.93zm25.762 0c3.54 0 6.525 2.575 6.525 5.93 0 3.25-2.934 5.87-6.525 5.87-3.592 0-6.525-2.62-6.525-5.87 0-3.355 2.984-5.93 6.525-5.93zM52.15 15.078c.809.674 1.18 1.547 1.18 2.604 0 1.058-.371 1.931-1.18 2.606-1.18.904-2.327.904-3.66.904h-.826v4.32h-2.31V14.175h3.136c1.333 0 2.48 0 3.66.904zm6.354-.905c1.434 0 2.327.246 3.035.766.708.522 1.467 1.441 1.467 2.744 0 .75-.303 1.93-1.197 2.712-.742.644-1.45.796-2.074.934l3.39 4.184h-2.8l-3.304-4.337h-.034v4.337h-2.31v-11.34h3.827zm23.752 0l3.322 8.581h.033l3.288-8.58h3.204v11.339h-2.31v-8.505h-.05l-3.187 8.505H84.6l-3.204-8.505h-.033v8.505h-2.31v-11.34h3.203zm31.899 0v1.962h-2.327v9.378h-2.31v-9.378h-2.31v-1.961h6.947zm3.573 0v11.34h-2.31v-11.34h2.31zm19.202 0l5.16 8.244h.033v-8.243h2.31v11.339h-2.58l-5.21-8.244h-.034v8.244h-2.31v-11.34h2.63zm-66.036 1.732c-2.343 0-4.215 1.778-4.215 3.953 0 2.1 1.838 3.923 4.215 3.923s4.215-1.823 4.215-3.923c0-2.175-1.872-3.953-4.215-3.953zm29.367 0c-2.343 0-4.215 1.778-4.215 3.953 0 2.1 1.838 3.923 4.215 3.923 2.378 0 4.216-1.823 4.216-3.923 0-2.175-1.872-3.953-4.216-3.953zm25.762 0c-2.344 0-4.215 1.778-4.215 3.953 0 2.1 1.837 3.923 4.215 3.923 2.377 0 4.215-1.823 4.215-3.923 0-2.175-1.871-3.953-4.215-3.953zm-67.552.23h-1.484v3.463h1.484c1.905 0 2.225-1.15 2.225-1.747 0-.628-.42-1.716-2.225-1.716zm-9.873 0h-.934v3.095h.742c.995 0 2.614-.061 2.614-1.548 0-1.43-1.47-1.54-2.422-1.547z" mask="url(#6uiuc1cvab)"/>
            </g>
        </g>
    </g>
</svg>
