<svg xmlns="http://www.w3.org/2000/svg" viewBox="0 0 65.02 73.05"><defs><style>.cls-1{fill:#9258db;isolation:isolate;opacity:0.25;}.cls-2,.cls-3{fill:none;stroke:#000001;stroke-width:2px;}.cls-2{stroke-linecap:round;stroke-linejoin:round;}.cls-3{stroke-miterlimit:8;}</style></defs><g id="Calque_2" data-name="Calque 2"><g id="Calque_1-2" data-name="Calque 1"><circle class="cls-1" cx="41.02" cy="24" r="24"/><path class="cls-2" d="M47.81,14.83H14A5.2,5.2,0,0,0,8.8,20V59a5.2,5.2,0,0,0,5.2,5.2H47.81A5.2,5.2,0,0,0,53,59V20A5.2,5.2,0,0,0,47.81,14.83Z"/><path class="cls-2" d="M14,64.24v5.2a2.61,2.61,0,0,0,5.21,0v-5.2"/><path class="cls-2" d="M42.61,64.24v5.2a2.6,2.6,0,1,0,5.2,0v-5.2"/><path class="cls-2" d="M8.8,38.23H3.6A2.59,2.59,0,0,1,1,35.63v-7.8a2.59,2.59,0,0,1,2.6-2.6H8.8"/><path class="cls-2" d="M53,38.23h5.2a2.59,2.59,0,0,0,2.6-2.6v-7.8a2.59,2.59,0,0,0-2.6-2.6H53"/><path class="cls-2" d="M8.8,48.64H53"/><path class="cls-2" d="M14,53.84h5.21"/><path class="cls-2" d="M42.61,53.84h5.2"/><path class="cls-2" d="M23.11,21.33h13"/><path class="cls-3" d="M16.61,22a.65.65,0,1,1,0-1.3"/><path class="cls-3" d="M16.61,22a.65.65,0,0,0,0-1.3"/></g></g></svg>