<svg xmlns="http://www.w3.org/2000/svg" viewBox="0 0 60.07 69.62"><defs><style>.cls-1{fill:#9258db;isolation:isolate;opacity:0.25;}.cls-2{fill:none;stroke:#000001;stroke-linecap:round;stroke-linejoin:round;stroke-width:2px;}</style></defs><g id="Calque_2" data-name="Calque 2"><g id="Calque_1-2" data-name="Calque 1"><circle class="cls-1" cx="35.85" cy="24" r="24"/><circle class="cls-2" cx="13.32" cy="64.81" r="3.81"/><circle class="cls-2" cx="41.28" cy="64.81" r="3.81"/><path class="cls-2" d="M59.07,17.79H52.46a1.27,1.27,0,0,0-1.24,1L41.28,61h-28"/><path class="cls-2" d="M42.55,55.91H10.42A1.26,1.26,0,0,1,9.22,55L2.44,34.71a1.28,1.28,0,0,1,.8-1.61A1.4,1.4,0,0,1,3.65,33H47.79"/><path class="cls-2" d="M27.3,33l9.27-9.28a1.26,1.26,0,0,1,1.78,0L47.83,33"/><path class="cls-2" d="M14.59,33,7.5,17.22a1.27,1.27,0,0,0-1.68-.64h0L1.72,18.52a1.28,1.28,0,0,0-.61,1.67L7,33"/><path class="cls-2" d="M17.13,33V26.68a1.27,1.27,0,0,1,1.27-1.27H28.57"/></g></g></svg>