<svg xmlns="http://www.w3.org/2000/svg" viewBox="0 0 56.65 65.74"><defs><style>.cls-1{fill:#9258db;isolation:isolate;opacity:0.25;}</style></defs><g id="Calque_2" data-name="Calque 2"><g id="Calque_1-2" data-name="Calque 1"><circle class="cls-1" cx="32.65" cy="24" r="24"/><path d="M23.28,15.22c-3.44,2-12.18,6.36-16.16,8.09C3.37,24.91,2,25.92,2,26.9a3.66,3.66,0,0,0,1.13,1.92c.16.1,5.1.2,11,.2H24.7V44.28H18.13c-3.62,0-6.75.08-7,.15-.49.19-.54,1.17-.1,1.61.23.23,2.14.31,7,.31H24.7l.05,9.46c.08,8.71.1,9.51.54,9.77a.74.74,0,0,0,.91,0c.41-.26.44-1.06.51-9.74l.06-9.49,6.77-.05c6.1-.08,6.77-.13,7-.55a.72.72,0,0,0,0-.9c-.26-.39-.93-.44-7.06-.52l-6.74,0V29h10.7c9.41,0,10.76-.05,11.12-.41a2,2,0,0,0,.07-3.15,19.91,19.91,0,0,0-3.41-1.74C41.35,22,33.82,18.32,29.53,16a31.55,31.55,0,0,0-3.88-2A14.83,14.83,0,0,0,23.28,15.22ZM28,17.62c3.23,1.81,12.59,6.44,16,7.94L47,26.83l-10.63.07c-5.87,0-15.43,0-21.3,0L4.45,26.83l3-1.27c3.47-1.5,13.16-6.31,16.13-8,1.14-.65,2.12-1.19,2.18-1.19S26.79,16.92,28,17.62Z"/><path d="M0,37.3c-.08.28.57,4.13,1.44,8.56l1.63,8.06-.46,4.94C2.36,61.58,2.1,64,2,64.34a1.31,1.31,0,0,0,1,1.4c.93,0,1.08-.49,1.6-5.61L5.18,55l4.5-.08c3.07,0,4.6,0,4.83.23s.36,1.32.36,5.05c0,3.95.08,4.78.42,5.11a.94.94,0,0,0,1.52,0c.36-.38.42-1.06.34-5.37C17,52.79,17,52.81,9.7,52.81c-2.56,0-4.65,0-4.65-.08,0-.36-3.13-15.51-3.23-15.69C1.51,36.55.19,36.76,0,37.3Z"/><path d="M49.65,37c-.11.18-3.23,15.33-3.23,15.69,0,.06-2.1.08-4.66.08-7.34,0-7.34,0-7.44,7.14-.08,4.31,0,5,.33,5.37a1,1,0,0,0,1.53,0c.33-.33.41-1.16.41-5.11,0-3.73.08-4.81.36-5.05s1.76-.28,4.84-.23l4.5.08.51,5.12c.52,5.12.68,5.58,1.61,5.61a1.31,1.31,0,0,0,1-1.4c-.08-.31-.34-2.76-.59-5.48l-.47-4.94L50,45.86c.88-4.43,1.52-8.28,1.45-8.56C51.28,36.76,50,36.55,49.65,37Z"/></g></g></svg>