<svg xmlns="http://www.w3.org/2000/svg" viewBox="0 0 59.11 66.79"><defs><style>.cls-1{fill:#9258db;isolation:isolate;opacity:0.25;}</style></defs><g id="Calque_2" data-name="Calque 2"><g id="Calque_1-2" data-name="Calque 1"><circle class="cls-1" cx="35.11" cy="24" r="24"/><path d="M27.26,11.18c-.44.3-.49.79-.44,3.39s.18,3.1.62,3.36a.81.81,0,0,0,1,0c.41-.26.5-.84.58-3.36s0-3.09-.43-3.39a2.21,2.21,0,0,0-.68-.38A2.32,2.32,0,0,0,27.26,11.18Z"/><path d="M8.12,19c-.67.68-.35,1.29,1.79,3.39s2.71,2.4,3.36,1.76.35-1.29-1.79-3.39S8.77,18.4,8.12,19Z"/><path d="M44.36,20.83c-2.11,2.1-2.4,2.71-1.76,3.36s1.29.35,3.39-1.79,2.4-2.71,1.76-3.36S46.46,18.69,44.36,20.83Z"/><path d="M23.32,21.15a18.77,18.77,0,0,0-11.66,9.52,21.83,21.83,0,0,0-1.52,4,25.17,25.17,0,0,0,.12,8.67,18.79,18.79,0,0,0,13,13.15,26.23,26.23,0,0,0,9.35,0,18.81,18.81,0,0,0,13-13.15,25.17,25.17,0,0,0,.12-8.67c-1.14-5.58-6-11-11.83-13.15A26.6,26.6,0,0,0,23.32,21.15Zm8.53,2.37a14.38,14.38,0,0,1,7.07,4.09A15.52,15.52,0,0,1,39.07,50c-9.91,9.88-26.91,2.86-26.91-11.13a14.64,14.64,0,0,1,4.67-11.11,14.28,14.28,0,0,1,11-4.64A18.07,18.07,0,0,1,31.85,23.52Z"/><path d="M.18,38.27a1,1,0,0,0,0,1.17c.29.56.55.58,3.41.53,2.58-.09,3.16-.18,3.42-.62a.81.81,0,0,0,0-1c-.26-.41-.84-.5-3.42-.58C.73,37.69.47,37.72.18,38.27Z"/><path d="M49,38a1.29,1.29,0,0,0-.35.82c0,1,.64,1.16,3.71,1.16,2.69,0,3-.05,3.3-.58a1,1,0,0,0,0-1.17c-.29-.52-.61-.58-3.3-.58C50.43,37.69,49.27,37.8,49,38Z"/><path d="M9.88,55.31c-2.11,2.1-2.4,2.71-1.76,3.36s1.29.35,3.39-1.79,2.4-2.71,1.76-3.36S12,53.17,9.88,55.31Z"/><path d="M42.6,53.52c-.67.68-.35,1.29,1.79,3.39s2.71,2.4,3.36,1.76.35-1.29-1.79-3.39S43.25,52.88,42.6,53.52Z"/><path d="M27.12,60c-.24.24-.35,1.41-.35,3.36,0,2.69.05,3,.58,3.31a1.08,1.08,0,0,0,1.17,0c.52-.3.58-.62.58-3.31,0-3.06-.2-3.71-1.17-3.71A1.29,1.29,0,0,0,27.12,60Z"/></g></g></svg>