<svg xmlns="http://www.w3.org/2000/svg" viewBox="0 0 58.52 64.29"><defs><style>.cls-1{fill:#9258db;isolation:isolate;opacity:0.25;}</style></defs><g id="Calque_2" data-name="Calque 2"><g id="Calque_1-2" data-name="Calque 1"><circle class="cls-1" cx="34.52" cy="24" r="24"/><path d="M21.64,19.23l-2.92,8.51H11.3c-13.86,0-14.59,2.07-4.25,10.46,6.44,5.23,7.05,6.08,6.08,8.88-.49,1.7-1.83,5.84-2.8,9A43.15,43.15,0,0,0,8.38,63c0,2.43,4,1.09,10.59-3.65,3.77-2.68,7.29-4.87,7.9-4.87s4,2.19,7.54,4.87c5.84,4.5,10.46,6.2,10.46,3.89,0-.49-1.33-5-2.92-10.1l-2.79-9.24,7.05-5.72C56.55,29.81,55.82,27.74,42,27.74H34.53l-2.91-8.51c-2.07-6.09-3.53-8.52-5-8.52S23.71,13.14,21.64,19.23Zm8.39,3L33,30.17h8.4c4.62,0,8.39.49,8.39,1.1s-3,3.4-6.69,6.32-6.69,5.6-6.69,6.09,1.34,4.62,2.92,9.48c1.82,5.11,2.43,8.4,1.58,7.79s-4.38-2.92-7.78-5.6l-6.45-4.74L20.3,55.35c-3.52,2.68-7,5.11-7.9,5.6s-.25-2.68,1.58-7.79C15.56,48.3,16.9,44,16.9,43.68s-3-3.17-6.69-6.09-6.69-5.83-6.69-6.32,3.77-1.1,8.39-1.1H20.3l2.92-7.9c1.46-4.38,3-7.91,3.41-7.91S28.57,17.89,30,22.27Z"/></g></g></svg>