<svg xmlns="http://www.w3.org/2000/svg" viewBox="0 0 56.83 64.71"><defs><style>.cls-1{fill:#9258db;isolation:isolate;opacity:0.25;}</style></defs><g id="Calque_2" data-name="Calque 2"><g id="Calque_1-2" data-name="Calque 1"><circle class="cls-1" cx="32.83" cy="24" r="24"/><path d="M19.05,13.58c-1.59,1.81-3.86,3.63-5.22,4-5.1,1.7-7,6-7,15.53,0,6.8-.34,9-1.47,9C1.81,42,0,46,0,53.71c0,11.22-.45,11,24.83,11S49.88,64.82,49.88,53c0-7.59-1.59-11-5.21-11-1.25,0-1.59-1.92-1.59-9,0-9.52-1.93-13.83-7-15.53-1.36-.34-3.63-2.16-5.21-4-1.82-2.15-3.75-3.29-5.9-3.29S20.86,11.43,19.05,13.58Zm10,.91c1.93,1.92,1.93,2-1,2.38a28.46,28.46,0,0,1-6.12,0c-2.95-.34-2.95-.46-1-2.38a7.5,7.5,0,0,1,4.08-1.93A7.5,7.5,0,0,1,29,14.49Zm9.18,7.37c2.5,2.38,2.61,3.06,2.61,21.53v19H9.07V43.51c0-17.8.11-19,2.49-21.54s3.4-2.61,13.27-2.61C34.24,19.36,35.82,19.7,38.2,21.86ZM6.8,46.57a2,2,0,0,1-2.26,2.27A2.09,2.09,0,0,1,3.06,45.1,2.09,2.09,0,0,1,6.8,46.57Zm40.59.34c.22,1.36-.34,1.93-1.93,1.93s-2.38-.68-2.38-2.38C43.08,43.62,46.82,44,47.39,46.91ZM6.8,56.89c0,4.87-.34,5.66-1.92,5.32s-2.16-1.7-2.39-5.78c-.34-4.76-.11-5.33,1.93-5.33S6.8,51.78,6.8,56.89Zm40.59-.46c-.23,4.08-.8,5.56-2.27,5.78-1.7.34-2-.45-2-5.32,0-5.11.34-5.79,2.38-5.79S47.73,51.67,47.39,56.43Z"/><path d="M13.26,41.81c-2.6,2.83-2.6,14-.11,16.55,2.72,2.83,21,2.61,23.47-.23s2.6-14.06.11-16.55C34,38.75,15.76,39,13.26,41.81Zm22.79,2.72c.34,1.81-.79,2-11,2-8.84,0-11.45-.34-11.45-1.47,0-2.84,1.48-3.18,11.79-2.84C34.12,42.6,35.71,42.94,36.05,44.53Zm-6.57,6c0,.9.56,1.7,1.13,1.7s1.13-.8,1.13-1.7,1-1.7,2.38-1.7c1.93,0,2.27.56,1.93,4.19l-.34,4.31H14.17L13.83,53l-.34-4.19h7.94C27.77,48.84,29.48,49.18,29.48,50.54Z"/></g></g></svg>