<svg width="17" height="16" viewBox="0 0 17 16" xmlns="http://www.w3.org/2000/svg" xmlns:xlink="http://www.w3.org/1999/xlink"><title>FCD49578-80FA-430C-824B-5941CFA03BAC</title><g id="Détail" stroke="none" stroke-width="1" fill="none" fill-rule="evenodd"><g id="BD---PDD-desktop-abtest-1photo-1440-galerieV4-2" transform="translate(-247.000000, -48.000000)" fill="#2b2b2b"><g id="4-navigation/tab/default" transform="translate(231.000000, 32.000000)"><g id="content" transform="translate(16.000000, 13.000000)"><g id="L/360" transform="translate(0.418033, 3.000000)"><path d="M3.66658448 5.43135242C3.75115326 5.63543836 3.65426545 5.86943925 3.45017951 5.95400803 1.92343534 6.58665761 1.2 7.47478534 1.2 8.64999437 1.2 10.3242039 3.47891565 11.487782 6.70015644 11.5771497L6.3423936 11.2807333C6.17204283 11.1400793 6.14796889 10.88796 6.28862296 10.7176093 6.42927702 10.5472585 6.68139625 10.5231845 6.85174703 10.6638386L8.18875874 11.7677733C8.39207642 11.9356473 8.38019399 12.2508743 8.16481527 12.4029655L6.82780355 13.3471061C6.64734738 13.4745366 6.39775595 13.4315507 6.2703255 13.2510946 6.14289505 13.0706384 6.18588089 12.821047 6.36633707 12.6936165L6.81068506 12.3799556C3.13740042 12.3108672.4 10.9341254.4 8.64999437.4 7.11748116 1.34126746 5.96193113 3.14392887 5.21494744 3.34801482 5.13037867 3.5820157 5.22726647 3.66658448 5.43135242zM9.60193367 11.6089068C9.82185559 11.587995 10.0170898 11.7493246 10.0380016 11.9692466 10.0589133 12.1891685 9.89758371 12.3844027 9.6776618 12.4053145L9.2839118 12.442755C9.06398988 12.4636668 8.86875562 12.3023372 8.84784388 12.0824152 8.82693213 11.8624933 8.98826175 11.6672591 9.20818367 11.6463473L9.60193367 11.6089068zM11.6418242 11.594747C11.6931396 11.8096183 11.5605514 12.0254053 11.3456801 12.0767208L10.9609728 12.1685964C10.7461015 12.2199118 10.5303145 12.0873236 10.478999 11.8724523 10.4276836 11.657581 10.5602718 11.441794 10.7751431 11.3904786L11.1598505 11.298603C11.3747218 11.2472875 11.5905088 11.3798757 11.6418242 11.594747zM13.1926996 10.8897998C13.2805474 11.0924959 13.1874445 11.3280283 12.9847484 11.4158761L12.6218397 11.5731597C12.4191436 11.6610075 12.1836112 11.5679046 12.0957634 11.3652086 12.0079155 11.1625125 12.1010184 10.9269801 12.3037145 10.8391322L12.6666232 10.6818487C12.8693193 10.5940008 13.1048517 10.6871037 13.1926996 10.8897998zM14.5967585 9.89399218C14.7279515 10.0717317 14.6902181 10.322171 14.5124785 10.4533641L14.1942522 10.6882531C14.0165127 10.8194461 13.7660734 10.7817127 13.6348804 10.6039732 13.5036873 10.4262337 13.5414207 10.1757944 13.7191603 10.0446013L14.0373866 9.80971227C14.2151261 9.67851924 14.4655654 9.71625264 14.5967585 9.89399218zM12.9649801 5.54405614C14.4025266 6.33265742 15.1515292 7.37548347 15.1515292 8.64999437 15.1515292 8.87090827 14.9724431 9.04999437 14.7515292 9.04999437 14.5306153 9.04999437 14.3515292 8.87090827 14.3515292 8.64999437 14.3515292 7.69830645 13.7812433 6.90430518 12.580213 6.24545067 12.3865282 6.13920016 12.3156488 5.8960546 12.4218993 5.70236985 12.5281498 5.5086851 12.7712953 5.43780564 12.9649801 5.54405614zM5.16708161 3.51120982C5.3264852 3.51120982 5.47324701 3.53833863 5.60669629 3.59291656 5.74071415 3.64772703 5.85762602 3.72716904 5.95664117 3.83077021 6.05543905 3.93414403 6.13009101 4.05427478 6.18020597 4.19039889 6.22975961 4.32499832 6.25445856 4.46933963 6.25445856 4.62289622 6.25445856 4.82427038 6.21846078 4.99949518 6.14542174 5.1477186 6.08961717 5.26096687 6.01529986 5.37133622 5.92267523 5.47888657 6.00899917 5.54600443 6.08469169 5.62001732 6.14960348 5.70090987 6.23796062 5.81101983 6.30457787 5.93311647 6.34918422 6.06672039 6.39353737 6.19956592 6.41561664 6.3424298 6.41561664 6.49493642 6.41561664 6.67610456 6.38613524 6.85161906 6.32721823 7.02101839 6.26785543 7.19169947 6.18016337 7.34428362 6.06440135 7.47815088 5.94790613 7.61286601 5.80927268 7.71851041 5.64918997 7.79452834 5.48792287 7.8711087 5.31021815 7.909288 5.1171453 7.909288 4.91889372 7.909288 4.73941393 7.86496894 4.58034798 7.77607604 4.42503613 7.6892811 4.29624407 7.58005455 4.19475677 7.44864066 4.09565149 7.32031121 4.02029186 7.18674947 3.96901471 7.04807151 3.9175887 6.908991 3.89130859 6.79156441 3.89130859 6.69391075 3.89130859 6.56294888 3.92719131 6.45248745 4.00044279 6.36687075 4.07602811 6.27852625 4.17443894 6.23239401 4.2886566 6.23239401 4.35446504 6.23239401 4.41667592 6.25586338 4.47290331 6.29991923 4.52848022 6.34346539 4.56660823 6.39815532 4.58410505 6.46033337 4.65991119 6.71051813 4.74023149 6.8941785 4.82287434 7.00993279 4.89383726 7.10932749 4.99006297 7.15720429 5.12168497 7.15720429 5.19548133 7.15720429 5.26699257 7.13466962 5.33814305 7.08807295 5.4097147 7.04120047 5.47015598 6.97011127 5.51934413 6.87294277 5.56868419 6.7754742 5.59368265 6.66107003 5.59368265 6.52856589 5.59368265 6.33066484 5.55132047 6.18070346 5.46954386 6.07579374 5.39217064 5.97653304 5.28684845 5.92795204 5.14438329 5.92795204 5.11890596 5.92795204 5.07531936 5.93142393 5.01533185 5.93847762 4.94761685 5.94643996 4.90462645 5.95037168 4.88108277 5.95037168 4.77060308 5.95037168 4.67873104 5.9136737 4.61320872 5.83951781 4.55022239 5.76823206 4.52005208 5.6732449 4.52005208 5.55891632 4.52005208 5.44390845 4.55685809 5.34608051 4.63064428 5.27142883 4.70585799 5.19533288 4.81243796 5.15905359 4.94463807 5.15905359H5.03770118C5.15017627 5.15905359 5.24467801 5.11930248 5.32666801 5.03710132 5.40695469 4.95660786 5.4484134 4.83729951 5.4484134 4.67334042 5.4484134 4.5510947 5.41530764 4.44890938 5.34901185 4.36319611 5.2879642 4.28426812 5.20910232 4.2464788 5.10352631 4.2464788 5.02650449 4.2464788 4.96633761 4.25904446 4.92233196 4.28242773 4.87693972 4.30654779 4.84222727 4.33740544 4.81680076 4.3756229 4.78657854 4.4210486 4.75690107 4.4816964 4.7283661 4.5573137 4.69758977 4.63887059 4.66946182 4.71573581 4.64298829 4.79059666 4.61938768 4.85178766 4.57646486 4.90036622 4.51748314 4.93397636 4.46251837 4.96529748 4.40005291 4.98072211 4.33178341 4.98072211 4.23905929 4.98072211 4.1566445 4.93572899 4.08818649 4.85373014 4.02137763 4.77370662 3.98891137 4.67020469 3.98891137 4.54722992 3.98891137 4.43536203 4.01592062 4.3194413 4.06900498 4.19980339 4.12141136 4.08169346 4.1973943 3.9700361 4.29645787 3.86491088 4.39761583 3.75756311 4.52280598 3.67180699 4.67117774 3.60769131 4.82031659 3.54324414 4.98587684 3.51120982 5.16708161 3.51120982zM12.5764648 2.2C12.9078357 2.2 13.1764648 2.46862915 13.1764648 2.8 13.1764648 3.13137085 12.9078357 3.4 12.5764648 3.4 12.245094 3.4 11.9764648 3.13137085 11.9764648 2.8 11.9764648 2.46862915 12.245094 2.2 12.5764648 2.2zM7.48725079 5.22148927C7.54035525 5.17175919 7.59564982 5.12953729 7.65318507 5.0949072 7.79005986 5.01252316 7.9433449 4.97128908 8.11105382 4.97128908 8.27136306 4.97128908 8.42060081 5.00856041 8.5572282 5.08295053 8.69200921 5.15633533 8.80956526 5.26030155 8.90952801 5.39392082 9.00833833 5.52599965 9.0842555 5.68088197 9.13745925 5.85804102 9.19022909 6.03375517 9.21658943 6.21719559 9.21658943 6.4080603 9.21658943 6.68537784 9.16491203 6.93861408 9.06123125 7.16684862 8.95632468 7.39778151 8.8085259 7.57975485 8.6183791 7.71085758 8.4267273 7.84299798 8.20904899 7.909288 7.9680544 7.909288 7.69086793 7.909288 7.44879757 7.8247791 7.24594304 7.6564405 7.0456048 7.49019004 6.89448916 7.24759198 6.79138975 6.9308421 6.69023631 6.62007075 6.64007524 6.24320065 6.64007524 5.79992748 6.64007524 5.44017867 6.67022551 5.11756089 6.73077285 4.8319586 6.79196285 4.54332487 6.88049725 4.30225886 6.99719648 4.10883228 7.11586444 3.91214255 7.26136168 3.76193623 7.43353689 3.65973591 7.60676474 3.55691076 7.80373481 3.50560491 8.02253037 3.50560491 8.23467223 3.50560491 8.42386799 3.55739896 8.58787198 3.66123898 8.7494735 3.76355787 8.87268797 3.89188279 8.95596758 4.04559566 9.03840882 4.19776108 9.0803995 4.3464851 9.0803995 4.49118081 9.0803995 4.58953101 9.0498617 4.68014126 8.99005389 4.75993816 8.92465495 4.84719486 8.83555047 4.893846 8.73071797 4.893846 8.64121066 4.893846 8.55860776 4.85919693 8.48641388 4.79358411 8.41747496 4.73092952 8.36803718 4.64628178 8.33786717 4.54325203 8.30821082 4.44773382 8.26249465 4.37312001 8.20072255 4.31744501 8.14333106 4.26571824 8.07938 4.24087389 8.00437171 4.24087389 7.9462903 4.24087389 7.88644555 4.26223473 7.82318896 4.30760709 7.75606882 4.35575067 7.69878721 4.42167882 7.65135698 4.5062648 7.57237018 4.64787109 7.51680758 4.88718631 7.48725079 5.22148927zM7.98167339 7.15720429C8.09857656 7.15720429 8.19445788 7.09872307 8.27681266 6.97162357 8.36521977 6.83518343 8.41054426 6.65161756 8.41054426 6.41927013 8.41054426 6.2607985 8.38901134 6.12658361 8.34680482 6.01647937 8.30599918 5.91002958 8.25194624 5.83151589 8.1853116 5.77895407 8.12097764 5.72820705 8.05266716 5.70375561 7.97713372 5.70375561 7.90500346 5.70375561 7.83561644 5.72761277 7.76664917 5.77734678 7.69623446 5.82812458 7.63823557 5.90327417 7.59289523 6.00468648 7.5467604 6.10787582 7.5232947 6.23090188 7.5232947 6.37443084 7.5232947 6.60881755 7.57162185 6.80060523 7.66679375 6.95168217 7.75545123 7.09241805 7.85806555 7.15720429 7.98167339 7.15720429zM11.9313086 5.72426119C11.9313086 6.03492005 11.9159221 6.30277829 11.8849828 6.52815392 11.8534344 6.75796667 11.7948202 6.96724764 11.7085599 7.15657362 11.5988464 7.39163332 11.4552255 7.57500039 11.2775017 7.70503132 11.0970006 7.83709431 10.8947512 7.90368309 10.6736942 7.90368309 10.4189616 7.90368309 10.189391 7.81423047 9.98905303 7.63769998 9.79247326 7.46448111 9.64566737 7.2268032 9.5474742 6.9246426 9.49877939 6.76367293 9.46319332 6.58647866 9.44058898 6.39304376 9.4181795 6.20127631 9.40700055 5.99424438 9.40700055 5.77190293 9.40700055 5.48639889 9.41927363 5.22879785 9.44388649 4.99898596 9.46876558 4.76668826 9.50784663 4.56596187 9.56189904 4.39522812 9.65674871 4.10940901 9.79656724 3.88846608 9.98228305 3.73458391 10.1707924 3.57838701 10.3965782 3.5 10.6555356 3.5 10.8263558 3.5 10.9829587 3.5346376 11.1241686 3.60416817 11.2647944 3.67341109 11.387899 3.77439531 11.4929809 3.90617804 11.595991 4.03536275 11.6823327 4.19353033 11.7524937 4.38056116 11.8723502 4.70183595 11.9313086 5.1491311 11.9313086 5.72426119zM11.1093746 5.66821208C11.1093746 5.33097411 11.0930156 5.05601013 11.0605879 4.84399594 11.0294473 4.6403975 10.9782455 4.49004466 10.9098497 4.39342002 10.8500312 4.30891272 10.7715952 4.26889844 10.6646149 4.26889844 10.5129646 4.26889844 10.4093603 4.36161093 10.3435181 4.57155029 10.2692616 4.80831883 10.2312044 5.18239379 10.2312044 5.69063172 10.2312044 6.03734443 10.2475791 6.3203848 10.2800561 6.53910006 10.3113093 6.74957344 10.3627655 6.90539517 10.4316151 7.0059304 10.4918438 7.09387714 10.5678067 7.13478464 10.6691546 7.13478464 10.7744394 7.13478464 10.8521318 7.09215209 10.9124758 7.00045508 10.9819688 6.89485532 11.0328491 6.73737637 11.0627142 6.52842883 11.0937293 6.31143601 11.1093746 6.02444721 11.1093746 5.66821208z" id="360"/></g></g></g></g></g></svg>