<svg xmlns="http://www.w3.org/2000/svg" width="20" height="20" viewBox="0 0 20 20">
    <g fill="none" fill-rule="evenodd">
        <g fill="#2B2B2B">
            <g>
                <g>
                    <path d="M14.382 2.746l.183.178c1.219 1.229 1.916 2.918 1.935 4.69.019 1.77-.642 3.476-1.833 4.733-.642.653-1.01 1.545-1.024 2.482v.791c-.007.91-.36 1.778-.982 2.412-.622.635-1.46.983-2.328.968h-.756c-.868.015-1.706-.333-2.327-.968-.622-.634-.976-1.503-.983-2.412v-.791c-.009-.934-.37-1.826-1.005-2.482-1.128-1.227-1.76-2.863-1.761-4.567-.03-1.78.636-3.496 1.844-4.75C7.817.427 11.789.322 14.382 2.746zm-1.657 11.966H7.188l.001.117v.791c.007.648.26 1.266.703 1.72.442.452 1.039.702 1.657.694h.756c.629.023 1.24-.22 1.694-.674.455-.454.715-1.082.722-1.74v-.791l.004-.117zM9.955 1.968h-.083c-1.474.015-2.882.64-3.918 1.738-2.097 2.198-2.097 5.758 0 7.956.548.582.93 1.304 1.112 2.085h2.428v-3.676L7.327 7.848c-.132-.117-.19-.302-.151-.478.04-.177.17-.316.338-.36.168-.043.345.016.459.152L9.955 9.2l1.982-2.038c.114-.136.291-.195.46-.151.167.043.298.182.337.359.04.176-.019.36-.151.478l-2.167 2.222v3.677h2.437c.19-.781.582-1.501 1.14-2.076 1.021-1.073 1.587-2.531 1.57-4.046-.018-1.515-.617-2.959-1.662-4.006-1.053-1.079-2.473-1.673-3.946-1.651z" transform="translate(-159 -2882) translate(143 2866) translate(16 16)"/>
                </g>
            </g>
        </g>
    </g>
</svg>
