<svg class="iconPhoto" preserveAspectRatio="xMaxYMax meet" viewBox="0 0 21 18.5" xmlns="http://www.w3.org/2000/svg"><path d="M2.742 3.518c-.685.0-1.242.53-1.242 1.18v7.553c0 .65.557 1.18 1.242 1.18H16.68c.684.0 1.242-.53 1.242-1.18V4.697c0-.65-.558-1.179-1.242-1.179h-2.092c-.502.0-1-.35-1.16-.816l-.54-1.56c-.02-.058-.136-.142-.215-.142H6.75c-.079.0-.195.083-.214.14l-.542 1.564c-.16.464-.659.814-1.16.814h-2.09zM16.68 14.43H2.742C1.506 14.43.5 13.453.5 12.251V4.697c0-1.2 1.006-2.179 2.242-2.179h2.091c.08.0.195-.084.215-.14L5.59.813C5.747.351 6.246.0 6.75.0h5.924c.501.0 1 .351 1.16.815l.541 1.562c.02.058.136.141.214.141h2.092c1.236.0 2.242.978 2.242 2.18v7.553c0 1.202-1.006 2.18-2.242 2.18zM9.71 5.355a2.987 2.987.0 0 1 2.985 2.984 2.987 2.987.0 0 1-2.984 2.984A2.987 2.987.0 0 1 6.727 8.34 2.987 2.987.0 0 1 9.71 5.355zm0 6.968a3.988 3.988.0 0 0 3.985-3.984A3.989 3.989.0 0 0 9.71 4.355 3.989 3.989.0 0 0 5.727 8.34a3.988 3.988.0 0 0 3.984 3.984zm6.615-6.774a.694.694.0 1 1-1.389.0.694.694.0 0 1 1.39.0zm-.694 1.194a1.195 1.195.0 0 0 0-2.388 1.195 1.195.0 0 0 0 2.388z"/></svg>