<svg xmlns="http://www.w3.org/2000/svg" xmlns:xlink="http://www.w3.org/1999/xlink" viewBox="0 0 21 21"><defs><path id="a" d="M9 16.837a7.756 7.756.0 0 1-1.235-.133c-.704-.908-2.653-2.653-2.714-2.98-.061-.642-1.49-1.418-2.265-1.418-.776.0-.266-1.622-.715-2.143-.255-.255-.581-.122-.836.072a8.092 8.092.0 0 1-.133-1.296c.388-.133.714-.266.776-.653.06-.388.714-.715.714-.643a5.52 5.52.0 0 0 .908-1.95c-.2-.63-.2-1.307.0-1.938.13-.283.235-.577.316-.877A7.306 7.306.0 0 1 6.082 1.55c0 .46.908.908 1.367.776a5.102 5.102.0 0 1 2.571.459c.837.255 1.225-.776 1.419-1.02.194-.246.459-.062.847.0.122.07.194.07.316.132.02.187.086.366.194.52.46 1.02.194 1.02-.643 1.296s-.582.123-1.02.704c0 0-.123.327-.255.592-.133.266-.133 1.419-.643.643-.51-.775-.715-.643-.715-.643s-.459.0-.581.643c-.123.643-1.429 1.306-1.296 1.918.133.613.061.715.449 1.02.164.296.232.635.194.97.0.643-.194.317.653.643.847.327.704.776 1.296 1.296.592.52.97-.061 1.285 1.296.317 1.357.786 2.398 1.296 1.939a3.061 3.061.0 0 0 1.286-1.98c.327-1.296.265-.194.653-1.939S15.775 9 15.775 9s.388-.061.52.449c.118.38.268.749.45 1.102A7.898 7.898.0 0 1 9 16.837M9 18a9 9 0 1 0-9-9 8.98 8.98.0 0 0 9 9"/></defs><g fill="none" fill-rule="evenodd" transform="translate(1 1)"><mask id="b" fill="#fff"><use xlink:href="#a"/></mask><g fill="#4c4c4c" mask="url(#b)"><path d="M-24-24h66v66h-66z"/></g></g></svg>