<svg width="18" height="18" viewBox="0 0 19 19" xmlns="http://www.w3.org/2000/svg"><g fill="none" fill-rule="evenodd"><g transform="translate(-113 -2167)"><g transform="translate(112 2166)"><mask id="print" fill="#fff"><path d="m15.341 12.554v1.1572h2.121s.1051.0.1051-.086074v-7.9571c0-.066947-.057325-.086075-.1051-.086075h-2.1018c-.0064101 8614e-8-.01283 8635e-8-.019257.0h-12.803s-.1051.0-.1051.086075v7.9571c.014876.047018.05611.080789.1051.086074h1.8439V12.554h-.27707c-.39575.0-.71656-.32114-.71656-.71729s.32082-.71729.71656-.71729h11.79c.39575.0.71656.32114.71656.71729.0.39615-.32082.71729-.71656.71729h-.55414zm-1.4331.0H5.8155v4.7532c.0019426.0765.036488.14851.094916.19786.058428.049349.13516.071318.21082.060361h7.4713c.15542.0067559.29113-.10439.31529-.25822v-2.6772c-.018657-.063926-.028662-.13155-.028662-.20151.0-.06996.010006-.13758.028662-.20151v-1.673zm2.1592-8.4066h1.3949c.40619-.0051149.79751.15284 1.0865.43857.28903.28573.4517.67544.45167 1.0821v7.9571c321e-7.40664-.16264.79635-.45167 1.0821-.28903.28573-.68035.44368-1.0865.43857h-2.121v2.1614c-.03094.94412-.80474 1.6933-1.7484 1.6928h-7.4713c-.45597.010266-.89695-.16323-1.2239-.48153-.32696-.3183-.5125-.75473-.51494-1.2113v-2.1614h-1.8439c-.84002-.0050468-1.5227-.6799-1.5382-1.5206v-7.9571c-32138e-9-.40664.16264-.79635.45167-1.0821s.68035-.44368 1.0865-.43857h1.4522v-1.4537c.025879-.94259.79686-1.6932 1.7389-1.6928h8.5987c.45597-.010266.89695.16323 1.2239.48153s.5125.75473.51494 1.2113v1.4537zm-1.4331.0v-1.4633c0-.14346-.1242-.24866-.30573-.24866h-8.5987c-.15183-.001865-.28202.10809-.30573.25822v1.4537h9.2102zm.70701 3.9403h-1.1274c-.39575.0-.71656-.32114-.71656-.71729.0-.39615.32082-.71729.71656-.71729h1.1274c.39575.0.71656.32114.71656.71729.0.39615-.32082.71729-.71656.71729z"/></mask><g fill="#4c4c4c" fill-rule="evenodd" mask="url(#print)"><g><path d="M0 0h20v20H0z"/></g></g></g></g></g></svg>