<svg xmlns="http://www.w3.org/2000/svg" width="20" height="20" viewBox="0 0 20 20"><g fill="none" fill-rule="evenodd"><g fill="#ff7532"><g><g><g><g><path d="M10 .5c5.247.0 9.5 4.253 9.5 9.5s-4.253 9.5-9.5 9.5S.5 15.247.5 10 4.753.5 10 .5zm0 1c-4.694.0-8.5 3.806-8.5 8.5s3.806 8.5 8.5 8.5 8.5-3.806 8.5-8.5-3.806-8.5-8.5-8.5zm.009 12.448c.288.0.537.105.747.315.21.21.315.489.315.837.0.324-.105.591-.315.801-.21.21-.459.315-.747.315-.3.0-.555-.105-.765-.315-.21-.21-.315-.477-.315-.801.0-.348.105-.627.315-.837.21-.21.465-.315.765-.315zm.738-10.008-.036 1.692-.198 6.804H9.487l-.198-6.804-.036-1.692h1.494z" transform="translate(-412 -123) translate(0 98) translate(408 20) translate(4) translate(0 5)"/></g></g></g></g></g></g></svg>